<svg width="17" height="17" viewBox="0 0 17 17" fill="none" xmlns="http://www.w3.org/2000/svg">
<g id="icon/maps/place_24px">
<path id="icon/maps/place_24px_2" fill-rule="evenodd" clip-rule="evenodd" d="M8.49996 1.41675C5.75871 1.41675 3.54163 3.63383 3.54163 6.37508C3.54163 10.0938 8.49996 15.5834 8.49996 15.5834C8.49996 15.5834 13.4583 10.0938 13.4583 6.37508C13.4583 3.63383 11.2412 1.41675 8.49996 1.41675ZM4.95829 6.37508C4.95829 4.42008 6.54496 2.83341 8.49996 2.83341C10.455 2.83341 12.0416 4.42008 12.0416 6.37508C12.0416 8.41508 10.0016 11.468 8.49996 13.3734C7.02663 11.4822 4.95829 8.39383 4.95829 6.37508ZM6.72913 6.37508C6.72913 5.39708 7.52196 4.60425 8.49996 4.60425C9.13262 4.60425 9.71722 4.94177 10.0335 5.48967C10.3499 6.03756 10.3499 6.7126 10.0335 7.2605C9.71722 7.8084 9.13262 8.14591 8.49996 8.14591C7.52196 8.14591 6.72913 7.35309 6.72913 6.37508Z" fill="white"/>
</g>
</svg>
