<svg width="22" height="17" viewBox="0 0 22 17" fill="none" xmlns="http://www.w3.org/2000/svg">
<g opacity="0.54">
<path d="M19.1052 0.22932C18.7983 -0.0786045 18.2983 -0.0742676 17.987 0.22932L15.1804 3.00497C11.7029 1.44367 7.99292 1.82532 4.454 4.1109C1.81845 5.81099 0.217823 7.94911 0.152044 8.04018C-0.0584497 8.32642 -0.0496791 8.71675 0.17397 8.99432C1.67374 10.8158 3.24367 12.234 4.84868 13.2229L2.37977 15.6646C2.0728 15.9681 2.0728 16.4626 2.37977 16.7705C2.53325 16.9223 2.73497 17.0003 2.9367 17.0003C3.13842 17.0003 3.34014 16.9223 3.49363 16.7705L19.1052 1.33524C19.4122 1.03166 19.4122 0.537244 19.1052 0.22932ZM8.79105 9.32393C8.67703 9.06804 8.62002 8.79048 8.62002 8.4999C8.62002 7.94043 8.83928 7.41133 9.24273 7.01233C9.87421 6.3878 10.8083 6.24035 11.5801 6.56562L8.79105 9.32393ZM12.7466 5.41632C11.3126 4.50556 9.37867 4.67037 8.12887 5.9064C7.42722 6.60031 7.0457 7.51975 7.0457 8.49557C7.0457 9.20683 7.25181 9.88773 7.63333 10.4732L6.00639 12.0822C4.58118 11.2669 3.17789 10.0612 1.81406 8.48689C2.39731 7.81033 3.62957 6.5049 5.3179 5.41632C8.2385 3.53408 11.1459 3.12641 13.9788 4.19764L12.7466 5.41632Z" fill="white"/>
</g>
<g opacity="0.54">
<path d="M21.3146 8.00485C20.2314 6.68641 19.1087 5.57615 17.9685 4.69575C17.6221 4.43119 17.1265 4.49191 16.8546 4.83019C16.5871 5.16847 16.6485 5.65855 16.9906 5.92744C17.8939 6.62569 18.7973 7.49308 19.6744 8.50793C19.1569 9.10643 18.1483 10.182 16.7801 11.1665C14.1444 13.0617 11.4825 13.747 8.8732 13.2005C8.44781 13.1094 8.02682 13.3827 7.93911 13.8034C7.84702 14.224 8.12329 14.6404 8.54868 14.7271C9.22841 14.8703 9.91253 14.9396 10.601 14.9396C11.636 14.9396 12.6797 14.7792 13.7191 14.4582C15.0829 14.0376 16.438 13.3436 17.7492 12.3982C19.9595 10.7978 21.2795 9.03271 21.3365 8.95898C21.547 8.67274 21.5382 8.28241 21.3146 8.00485Z" fill="white"/>
</g>
</svg>
