<svg width="96" height="96" viewBox="0 0 96 96" fill="none" xmlns="http://www.w3.org/2000/svg">
<path d="M72 54V9.99938C71.9925 4.47938 67.5206 0.0075 62.0006 0H18C17.4694 0 16.9613 0.211875 16.5863 0.586875L0.586875 16.5863C0.211875 16.9613 0 17.4694 0 18V86.0006C0.0075 91.5206 4.47938 95.9944 9.99938 96H61.9987C67.5188 95.9925 71.9925 91.5206 71.9981 86.0006V82.0013H67.9987V86.0006C67.9987 89.3138 65.3119 92.0006 61.9987 92.0006H9.99938C6.68625 92.0006 3.99937 89.3138 3.99937 86.0006V18.8288L18.8269 4.00125H61.9987C65.3119 4.00125 67.9987 6.68813 67.9987 10.0013V54H72Z" fill="white"/>
<path d="M15.9993 2.00061V14.0006C15.9993 15.105 15.103 16.0012 13.9986 16.0012H9.99927V20.0006H13.9986C17.3118 20.0006 19.9986 17.3137 19.9986 14.0006V2.00061H15.9993Z" fill="white"/>
<path d="M95.4151 48.1238L89.8764 42.585C89.0945 41.805 87.8289 41.805 87.0489 42.585L56.5857 73.0481C55.8057 73.83 55.8057 75.0956 56.5857 75.8756L62.1245 81.4144C62.4995 81.7894 63.0076 82.0013 63.5382 82.0013C64.0689 82.0013 64.577 81.7894 64.952 81.4144L95.4132 50.9531C96.1951 50.1713 96.1951 48.9056 95.4151 48.1238ZM63.5382 77.1712L60.8289 74.4619L88.4626 46.8281L91.172 49.5375L63.5382 77.1712Z" fill="white"/>
<path d="M60.0001 78V74.0006H56.0007V80.0006C56.0007 81.105 56.897 82.0012 58.0014 82.0012H64.0014V78H60.0001Z" fill="white"/>
<path d="M51.9994 27.9994H20.0006C18.8963 27.9994 18 28.8956 18 30V57.9994C17.9981 58.7644 18.4331 59.4619 19.1194 59.7994L33.03 66.6C33.9431 67.1213 34.9781 67.3988 36.03 67.4006C37.0219 67.4063 37.9988 67.1531 38.865 66.6656L52.8806 59.7994C53.5669 59.4619 54.0019 58.7644 54 57.9994V30C54 28.8956 53.1038 27.9994 51.9994 27.9994ZM50.0006 56.7525L36.9919 63.1313C36.3338 63.4913 35.5331 63.4669 34.8956 63.0713L21.9994 56.7525V32.0006H49.9988L50.0006 56.7525Z" fill="white"/>
<path d="M44.5856 38.8893L33.9993 49.4756L29.4131 44.8893L26.5856 47.7168L32.5856 53.7168C32.9606 54.0918 33.4687 54.3037 33.9993 54.3037C34.5299 54.3037 35.0381 54.0918 35.4131 53.7168L47.4131 41.7168L44.5856 38.8893Z" fill="white"/>
<path d="M39.9993 78C38.8949 78 37.9986 77.1037 37.9986 75.9994V72H33.9993V75.9994C33.9993 79.3125 36.6861 81.9994 39.9993 81.9994H51.9993V78H39.9993Z" fill="white"/>
</svg>
