<svg width="18" height="18" viewBox="0 0 18 18" fill="none" xmlns="http://www.w3.org/2000/svg">
<path d="M17.334 15.9083L14.2424 12.8416C15.4424 11.3453 16.0236 9.446 15.8664 7.53434C15.7091 5.62267 14.8254 3.84391 13.397 2.56379C11.9685 1.28368 10.1039 0.599512 8.18645 0.651979C6.26905 0.704446 4.44462 1.48956 3.0883 2.84587C1.73199 4.20219 0.946878 6.02662 0.894411 7.94402C0.841944 9.86143 1.52611 11.7261 2.80622 13.1545C4.08634 14.583 5.8651 15.4667 7.77677 15.6239C9.68843 15.7812 11.5877 15.2 13.084 13.9999L16.1507 17.0666C16.2282 17.1447 16.3203 17.2067 16.4219 17.249C16.5234 17.2913 16.6323 17.3131 16.7424 17.3131C16.8524 17.3131 16.9613 17.2913 17.0628 17.249C17.1644 17.2067 17.2565 17.1447 17.334 17.0666C17.4842 16.9112 17.5682 16.7035 17.5682 16.4874C17.5682 16.2713 17.4842 16.0636 17.334 15.9083ZM8.40902 13.9999C7.25529 13.9999 6.12748 13.6578 5.16819 13.0168C4.20891 12.3759 3.46123 11.4648 3.01972 10.3989C2.57821 9.33301 2.46269 8.16012 2.68777 7.02856C2.91285 5.89701 3.46842 4.8576 4.28423 4.0418C5.10004 3.22599 6.13944 2.67042 7.27099 2.44534C8.40255 2.22026 9.57544 2.33578 10.6413 2.77729C11.7072 3.2188 12.6183 3.96647 13.2593 4.92576C13.9002 5.88505 14.2424 7.01286 14.2424 8.16659C14.2424 9.71368 13.6278 11.1974 12.5338 12.2914C11.4398 13.3853 9.95611 13.9999 8.40902 13.9999Z" fill="white"/>
</svg>
