<svg width="137" height="137" viewBox="0 0 137 137" fill="none" xmlns="http://www.w3.org/2000/svg">
<g clip-path="url(#clip0)">
<path d="M92.1044 74.0538L80.4427 68.8708C79.6189 68.5047 79.0869 67.6857 79.0869 66.7845V63.5821C83.0043 60.4608 85.5222 55.6543 85.5222 50.2679V45.76C86.8127 45.0469 87.6671 43.6689 87.6671 42.1255V41.688C87.6671 32.3024 80.0312 24.6665 70.6456 24.6665H66.3558C56.9702 24.6665 49.3343 32.3024 49.3343 41.688V45.6575C49.3343 47.0141 49.9182 48.2431 50.9358 49.0295C51.1084 49.1628 51.2901 49.28 51.4792 49.3814V50.2676C51.4792 55.654 53.9969 60.4605 57.914 63.5815V66.7842C57.914 67.6854 57.3817 68.5045 56.5581 68.8705L44.8965 74.0535C41.0774 75.7508 38.6095 79.5482 38.6095 83.7275V110.326C38.6095 111.434 39.508 112.333 40.6163 112.333C41.7246 112.333 42.6232 111.434 42.6232 110.326V83.7278C42.6232 83.4953 42.6398 83.2654 42.6638 83.0375L48.0374 88.411C48.8735 89.2474 49.3343 90.3592 49.3343 91.5422V110.326C49.3343 111.435 50.2328 112.333 51.3412 112.333C52.4495 112.333 53.348 111.435 53.348 110.326V91.5422C53.348 89.2873 52.4701 87.1675 50.8756 85.573L44.4695 79.1667C45.0466 78.5678 45.7391 78.0715 46.5269 77.7212L57.9918 72.6257L66.4941 81.128V110.326C66.4941 111.434 67.3927 112.333 68.501 112.333C69.6093 112.333 70.5078 111.434 70.5078 110.326V81.1283L79.0101 72.626L90.4748 77.7212C91.2626 78.0715 91.9551 78.5678 92.5322 79.1669L86.1261 85.573C84.5316 87.1675 83.6537 89.2873 83.6537 91.5422V110.326C83.6537 111.435 84.5522 112.333 85.6605 112.333C86.7688 112.333 87.6674 111.435 87.6674 110.326V91.5422C87.6674 90.3595 88.1279 89.2474 88.9643 88.411L94.3376 83.0377C94.3617 83.2657 94.3782 83.495 94.3782 83.7275V110.326C94.3782 111.434 95.2768 112.333 96.3851 112.333C97.4934 112.333 98.3919 111.434 98.3919 110.326V83.7278C98.3911 79.5485 95.9235 75.751 92.1044 74.0538ZM68.5002 77.459L61.0398 69.9983C61.6071 69.0439 61.9274 67.9396 61.9274 66.7845V65.9678C63.9511 66.8182 66.1717 67.2894 68.5004 67.2894C70.8292 67.2894 73.0495 66.8184 75.073 65.9681V66.7845C75.073 67.9399 75.3933 69.0439 75.9608 69.9986L68.5002 77.459ZM68.5004 63.2754C61.328 63.2757 55.4926 57.4403 55.4926 50.2679V49.3654C56.7449 48.869 57.9672 48.0791 59.1373 46.9994C59.9516 46.2478 60.0027 44.9781 59.2508 44.1636C58.4992 43.3494 57.2298 43.2983 56.415 44.0499C55.4113 44.9765 54.4084 45.5751 53.435 45.8293C53.4114 45.8355 53.394 45.8381 53.3817 45.8392C53.3673 45.8111 53.3477 45.7522 53.3477 45.6578V41.6883C53.3477 34.5158 59.1831 28.6805 66.3555 28.6805H70.6454C77.8181 28.6805 83.6532 34.5158 83.6532 41.6883V42.1257C83.6532 42.1908 83.6141 42.2472 83.5627 42.2574C71.5455 44.6308 65.518 40.1577 63.4844 38.1241C62.7007 37.3404 61.4299 37.3404 60.6465 38.1241C59.8627 38.9078 59.8627 40.1786 60.6465 40.962C66.8784 47.194 75.972 47.3063 81.5083 46.6411V50.2676C81.5083 57.4401 75.6729 63.2754 68.5004 63.2754Z" fill="white" stroke="white"/>
<path d="M36.1879 63.1381V58.8475C36.1879 53.612 33.4671 49.0032 29.3676 46.351C29.6207 45.5389 29.7529 44.6883 29.7529 43.8328C29.7529 39.178 25.9661 35.3912 21.3113 35.3912C16.6565 35.3912 12.8697 39.1783 12.8697 43.8328C12.8697 44.699 13.0008 45.5413 13.2545 46.3515C9.1552 49.0035 6.43473 53.6123 6.43473 58.8475V63.1373C6.43473 68.2071 8.98556 72.6901 12.8695 75.3771V79.7903C12.8695 80.6607 12.3859 81.4431 11.6076 81.8325L4.6663 85.303C1.78796 86.7425 0 89.6356 0 92.8538V110.326C0 111.435 0.898529 112.333 2.00684 112.333C3.11515 112.333 4.01368 111.435 4.01368 110.326V93.7218L7.28296 96.9911C8.11914 97.8275 8.57991 98.9393 8.57991 100.122V110.326C8.57991 111.435 9.47844 112.333 10.5867 112.333C11.6951 112.333 12.5936 111.435 12.5936 110.326V100.122C12.5936 97.8674 11.7154 95.7476 10.1212 94.1531L5.57099 89.6029C5.54905 89.581 5.5255 89.562 5.50302 89.5414C5.78853 89.2893 6.10882 89.0699 6.46149 88.8933L13.4027 85.4228C13.7584 85.2449 14.0894 85.0348 14.3979 84.8015L19.3045 89.7084V110.327C19.3045 111.435 20.203 112.333 21.3113 112.333C22.4196 112.333 23.3181 111.435 23.3181 110.327V89.7081L28.225 84.8012C28.5338 85.0348 28.8645 85.2449 29.2201 85.4226L31.1341 86.3797C31.4223 86.5239 31.7284 86.5922 32.0302 86.5922C32.7663 86.5922 33.4752 86.1854 33.8268 85.4825C34.3226 84.4911 33.9207 83.2857 32.9293 82.7901L31.0153 81.833C30.2367 81.4437 29.7531 80.6613 29.7531 79.7911V75.3779C33.637 72.6909 36.1879 68.2076 36.1879 63.1381ZM21.3113 39.4049C23.753 39.4049 25.7392 41.3914 25.7392 43.8328C25.7392 44.1017 25.7151 44.3653 25.6691 44.6235C24.29 44.2002 22.8271 43.9709 21.3113 43.9709C19.7976 43.9709 18.3366 44.1994 16.9597 44.6216C16.9134 44.3634 16.8834 44.1012 16.8834 43.8328C16.8834 41.3912 18.8696 39.4049 21.3113 39.4049ZM21.3113 47.9848C27.301 47.9848 32.1742 52.858 32.1742 58.8477V59.575C23.819 62.1331 18.8397 55.7773 18.627 55.4987C18.2778 55.0334 17.7439 54.7423 17.1638 54.701C16.5837 54.6604 16.0138 54.8726 15.6025 55.2838C13.6869 57.1994 11.8107 58.1234 10.4556 58.5694C10.6041 52.7079 15.4149 47.9848 21.3113 47.9848ZM21.3113 86.0385L16.6739 81.4011C16.8093 80.8836 16.8834 80.3442 16.8834 79.7906V77.3409C18.2826 77.7781 19.77 78.0138 21.3113 78.0138C22.8526 78.0138 24.34 77.7781 25.7392 77.3409V79.7906C25.7392 80.3442 25.8133 80.8839 25.9487 81.4011L21.3113 86.0385ZM21.3113 74.0002C15.3216 74.0002 10.4484 69.127 10.4484 63.1373V62.7215C12.0488 62.3538 14.4217 61.4994 16.8971 59.5086C17.7728 60.3349 19.0246 61.3485 20.6185 62.2179C22.5039 63.2462 25.1077 64.1974 28.2881 64.1974C29.4968 64.1974 30.79 64.0569 32.1571 63.7342C31.8459 69.4476 27.1006 74.0002 21.3113 74.0002Z" fill="white" stroke="white"/>
<path d="M132.334 81.0135L121.103 75.3978C120.325 75.0085 119.841 74.2261 119.841 73.3559V70.5118C122.47 68.1777 124.131 64.7763 124.131 60.9927V58.7084C124.177 58.7084 124.223 58.7097 124.269 58.7097C125.377 58.7097 126.276 57.8112 126.276 56.7029V52.4131C126.276 45.3929 120.564 39.6814 113.544 39.6814H109.254C102.234 39.6814 96.5226 45.3929 96.5226 52.4131V56.7029C96.5226 57.8112 97.4211 58.7097 98.5294 58.7097C98.546 58.7097 98.5942 58.7092 98.6675 58.7062V60.9927C98.6675 64.7765 100.329 68.178 102.958 70.5121V73.3562C102.958 74.2266 102.474 75.009 101.695 75.3981C100.704 75.8936 100.302 77.0991 100.798 78.0904C101.15 78.7936 101.858 79.2004 102.594 79.2004C102.896 79.2004 103.202 79.1321 103.49 78.9882C103.846 78.8102 104.177 78.6002 104.485 78.3669L109.392 83.2737V110.327C109.392 111.435 110.291 112.334 111.399 112.334C112.507 112.334 113.406 111.435 113.406 110.327V83.2732L118.313 78.3663C118.621 78.5999 118.952 78.81 119.308 78.9876L130.175 84.4216L126.879 87.7179C125.285 89.3124 124.407 91.4322 124.407 93.6871V110.326C124.407 111.434 125.305 112.333 126.414 112.333C127.522 112.333 128.42 111.434 128.42 110.326V93.6871C128.42 92.5044 128.881 91.3923 129.717 90.5559L132.84 87.4335C132.934 87.7966 132.986 88.1752 132.986 88.5637V110.326C132.986 111.434 133.885 112.333 134.993 112.333C136.101 112.333 137 111.434 137 110.326V88.5637C137 85.3458 135.212 82.4528 132.334 81.0135ZM100.536 54.2832V52.4128H100.536C100.536 47.6057 104.447 43.6948 109.254 43.6948H113.544C118.351 43.6948 122.262 47.6057 122.262 52.4128V54.642C113.538 54.1713 108.274 50.7765 108.222 50.7431C107.883 50.5167 107.495 50.406 107.11 50.406C106.592 50.406 106.078 50.6061 105.69 50.9938C103.77 52.914 101.889 53.8382 100.536 54.2832ZM111.399 79.6039L106.762 74.9665C106.897 74.449 106.971 73.9095 106.971 73.3559V72.9286C108.351 73.4421 109.843 73.7241 111.399 73.7241C112.956 73.7241 114.447 73.4421 115.827 72.9286V73.3559C115.827 73.9095 115.901 74.449 116.037 74.9665L111.399 79.6039ZM111.399 69.7107C106.592 69.7107 102.681 65.8 102.681 60.9927V57.7574C104.087 57.1958 105.724 56.3028 107.391 54.8831C109.498 55.9796 113.907 57.8749 120.117 58.501V60.9927C120.117 65.7997 116.206 69.7107 111.399 69.7107Z" fill="white" stroke="white"/>
</g>
<defs>
<clipPath id="clip0">
<rect width="137" height="137" fill="white"/>
</clipPath>
</defs>
</svg>
