<svg width="94" height="117" viewBox="0 0 94 117" fill="none" xmlns="http://www.w3.org/2000/svg">
<g clip-path="url(#clip0)">
<path d="M76.489 103.099H76.147L80.6493 46.827C80.7231 45.8977 80.0368 45.0832 79.1135 45.009C78.1925 44.9325 77.3832 45.6255 77.3072 46.5547L72.7825 103.099H21.2175L16.6905 46.5277C16.6168 45.5985 15.8075 44.9055 14.8842 44.982C13.9609 45.0562 13.2724 45.8707 13.3484 46.8L17.853 103.102H17.511C14.8462 103.102 12.6777 105.284 12.6777 107.966V111.238C12.6777 113.92 14.8462 116.102 17.511 116.102H76.4912C79.156 116.102 81.3245 113.92 81.3245 111.238V107.966C81.3245 105.282 79.156 103.099 76.489 103.099ZM77.9712 111.235C77.9712 112.057 77.3072 112.725 76.4912 112.725H17.5087C16.6928 112.725 16.0288 112.057 16.0288 111.235V107.964C16.0288 107.143 16.6928 106.474 17.5087 106.474H76.489C77.305 106.474 77.9689 107.143 77.9689 107.964L77.9712 111.235Z" fill="#2E4EA4" stroke="#2E4EA4" stroke-width="2" stroke-miterlimit="10"/>
<path d="M91.8315 26.6985C90.7964 25.4565 89.2785 24.7432 87.6666 24.7432H19.4648V18.5377C19.4648 17.397 20.1265 16.344 21.1526 15.8557L26.12 13.4955C27.0634 14.3842 28.3242 14.9085 29.6544 14.9085C30.4189 14.9085 31.1589 14.742 31.8542 14.4112L39.4773 10.791C42.0504 9.56922 43.1548 6.46872 41.9409 3.87897C41.353 2.62571 40.3157 1.67621 39.0168 1.20821C37.7202 0.740214 36.3185 0.807714 35.0733 1.39946L27.4501 5.01972C25.3376 6.02322 24.2153 8.29347 24.5529 10.5075L19.7196 12.8025C17.5266 13.8442 16.1092 16.0942 16.1092 18.5355V24.741H6.33322C4.7214 24.741 3.20347 25.4542 2.16841 26.6962C1.13336 27.9382 0.699661 29.5672 0.979103 31.1647L1.99851 36.9675C2.45903 39.5865 4.71022 41.4877 7.35263 41.4877H86.6495C89.2919 41.4877 91.5453 39.5865 92.0036 36.9675L93.023 31.1647C93.3024 29.5717 92.8688 27.9427 91.8315 26.6985ZM28.8809 8.07297L36.5041 4.45272C36.7477 4.33572 37.0115 4.27722 37.2731 4.27722C37.4788 4.27722 37.6844 4.31322 37.8834 4.38522C38.3372 4.54947 38.7016 4.88022 38.9073 5.31897C39.332 6.22572 38.9453 7.31022 38.0444 7.73772L30.4212 11.358C30.1775 11.4727 29.9182 11.5335 29.6521 11.5335C28.9569 11.5335 28.3131 11.124 28.018 10.4917C27.5932 9.58497 27.98 8.50047 28.8809 8.07297ZM89.7189 30.582L88.6995 36.3847C88.5229 37.3882 87.6599 38.1172 86.6472 38.1172H7.35039C6.33769 38.1172 5.47478 37.3882 5.29817 36.3847L4.27876 30.582C4.17145 29.97 4.33688 29.3445 4.73481 28.8697C5.13274 28.3927 5.71398 28.1205 6.33099 28.1205H87.6644C88.2814 28.1205 88.8649 28.3927 89.2606 28.8697C89.6608 29.3445 89.8262 29.97 89.7189 30.582Z" fill="#2E4EA4" stroke="#2E4EA4" stroke-width="2" stroke-miterlimit="10"/>
<path d="M27.5843 67.8892H66.4134C68.0454 67.8892 69.427 66.6067 69.5566 64.9687L70.2362 56.4615C70.3078 55.5817 70.006 54.7042 69.4113 54.054C68.8167 53.4037 67.9716 53.0325 67.0931 53.0325H26.9047C26.0262 53.0325 25.1811 53.4037 24.5865 54.054C23.9918 54.7042 23.69 55.5817 23.7616 56.4615L24.4412 64.9687C24.5708 66.6067 25.9524 67.8892 27.5843 67.8892ZM66.8807 56.4097L66.2324 64.5165H27.7677L27.1194 56.4097H66.8807Z" fill="#2E4EA4" stroke="#2E4EA4" stroke-width="2" stroke-miterlimit="10"/>
</g>
<defs>
<clipPath id="clip0">
<rect width="94" height="117" fill="white"/>
</clipPath>
</defs>
</svg>
