<svg width="108" height="94" viewBox="0 0 108 94" fill="none" xmlns="http://www.w3.org/2000/svg">
<path d="M104.349 56.0806C102.217 47.4437 95.5842 34.0151 71.9546 34.0151C67.1577 34.0151 56.5569 35.4349 51.9969 35.849C52.1745 35.1391 54.6026 28.9276 54.8395 28.0995C54.1288 27.567 49.9241 26.3248 44.2388 26.2064C29.7294 25.9698 13.088 32.7728 4.20476 39.0434C3.02032 42.2379 1.24366 46.5563 0 49.7508C8.46874 45.1366 21.9121 38.6293 36.0662 37.0321C43.5873 36.1448 49.095 38.2153 49.8649 38.9843C50.5755 39.6942 42.9359 41.8238 43.0543 44.9C43.0543 48.5677 59.1627 44.7816 69.5858 44.7816C88.6552 44.7816 95.8803 51.703 98.7822 60.5765C102.395 71.7571 95.7619 82.4053 87.7669 86.3096C97.8346 83.8842 107.784 70.3373 104.349 56.0806Z" fill="white"/>
<path d="M44.6534 23.8402C50.3387 23.8402 54.3658 24.8458 55.491 25.6149C55.2541 26.4431 52.8852 32.832 52.6483 33.5419C55.0764 33.2461 65.381 31.8855 73.1391 31.8855C96.1172 31.8855 103.046 45.7281 104.764 53.241C105.297 55.6665 105.77 59.1567 105.652 61.4638C106.777 56.1397 106.659 51.0522 105.652 45.0774C104.112 35.9081 98.0715 21.8288 76.574 21.8288C67.9276 21.8288 62.0646 22.9528 56.7346 23.5444C56.9715 22.8345 58.8666 17.6287 59.1035 16.8005C57.9191 15.6765 54.0697 14.5526 48.3843 14.3751C34.8818 14.0793 19.5433 18.7527 9.17943 25.9698C7.995 28.9276 6.57367 32.8911 5.15234 36.4405C15.7531 29.5192 32.0983 23.8402 44.6534 23.8402Z" fill="white"/>
<path d="M105.652 27.6854C103.461 19.995 97.1239 9.1693 79.7127 9.1693C73.139 9.1693 64.0781 9.87918 61.2354 10.2341C61.4131 9.52424 63.5451 4.02267 63.8412 3.19448C62.7752 1.6564 59.2811 0.118327 53.5366 1.36532e-05C40.0932 -0.29577 23.8664 5.91569 13.7394 13.4286C12.4958 16.623 11.0152 20.9415 9.94922 23.8993C19.7208 16.7414 35.5331 11.713 48.9765 12.0088C54.6618 12.1271 58.6297 13.192 59.8733 14.3751C59.6364 15.2033 57.5637 20.6457 57.3268 21.3556C63.1305 20.2908 72.0138 19.4626 76.9884 19.4626C98.0122 19.4626 104.527 33.4827 105.889 41.0548C106.244 43.2436 106.718 46.0239 106.718 48.7451C107.725 44.4267 107.902 35.4349 105.652 27.6854Z" fill="white"/>
<path d="M94.9921 64.5991C93.5115 64.0076 91.0834 63.0019 89.2476 62.5878C89.7806 60.6948 87.3525 59.3933 82.3186 57.6778C81.904 55.7848 78.7653 53.7734 76.3964 55.6073C72.9023 53.6551 63.6045 50.6381 58.8075 50.0466C58.4522 50.9339 57.6231 52.2945 56.1425 52.472C48.8582 53.5368 41.6331 49.3958 30.381 49.7508C21.7938 50.0466 12.4367 59.0384 14.0357 69.8641C15.2201 70.3373 16.523 71.4021 15.9308 72.7036C15.3978 74.005 14.4503 75.484 13.1474 78.7376C11.9037 81.932 10.1271 88.9717 13.7988 93.9409H23.6889C23.8666 93.231 23.7481 90.5689 22.6229 90.3323C21.6753 90.0957 20.7278 88.9125 21.0239 87.4336C21.32 85.9547 22.7413 84.8899 25.5248 83.5884C24.9918 81.2813 23.5112 79.0925 23.3336 78.2643C24.5772 78.0277 30.7363 89.6816 31.5062 90.9239C32.3353 92.1661 33.5789 93.2901 34.8226 93.9409H45.4826C45.4826 92.876 45.4233 90.2731 44.2389 89.9774C42.7583 89.6224 40.9817 89.7999 40.5671 87.966C40.2118 86.3688 41.337 84.2391 41.6331 81.5771C44.0612 80.7489 47.4369 80.8672 48.799 80.7489C47.733 84.2983 47.9699 89.2675 48.2068 90.983C48.3844 91.6337 50.0426 93.231 51.997 93.8817H62.7754C62.7161 92.9352 62.42 90.0957 61.1764 90.0365C58.5706 89.9774 56.9716 88.7351 57.0901 87.5519C57.2085 86.3688 58.8075 84.7124 60.9987 82.7011C61.887 81.8729 64.6705 78.3235 65.8549 78.915C64.552 79.7432 63.7821 81.7546 62.953 83.1152C64.019 86.4871 69.2305 92.0478 72.547 93.8817H83.2069C82.97 92.6394 82.2001 90.1548 80.2458 89.7999C77.6401 89.3266 76.278 88.8534 75.4489 87.5519C74.5605 86.2505 73.9683 81.8729 73.0208 79.5066C71.481 75.7206 71.1849 74.1825 72.8431 73.4135C73.0208 73.8276 74.3236 75.9572 74.7974 76.4896C77.6401 76.253 83.7399 74.3008 84.569 72.5853C86.4049 72.7627 88.4777 72.7627 89.3068 72.3487C89.5437 72.2303 91.0834 70.4556 90.6689 70.1007C90.5504 69.9824 90.1359 69.9824 89.5437 69.8049C90.432 69.6274 91.5572 69.2133 91.9718 68.9767C93.9261 67.8527 95.762 64.8949 94.9921 64.5991ZM90.6689 67.9711C89.1883 68.7992 86.9379 68.0894 85.2205 68.326C83.8584 68.5035 83.5623 69.45 83.6807 70.1598C81.0157 71.4021 76.9886 70.988 74.7382 72.7627C73.7906 71.7571 72.7246 70.7514 70.3558 70.219C70.7111 69.3317 72.1324 67.6753 73.9091 67.3795C67.8684 65.9597 59.9327 71.6388 55.6687 78.3826C52.9445 82.7011 52.2339 86.073 51.8785 87.7294C50.7533 87.4928 50.2203 81.5179 51.8193 76.1347C53.1222 71.6979 54.129 69.3317 56.4386 65.6639C55.3726 65.3682 51.0494 68.9767 50.2203 72.7036C47.6145 72.7627 44.7719 71.5205 43.0545 69.8049C41.6331 68.3851 39.9749 67.202 39.1458 67.4978C41.6924 72.5853 39.0866 81.163 37.4876 85.1265C35.7702 84.2391 37.6653 80.2757 28.8412 69.095C25.9393 65.4273 21.5569 65.5456 19.5434 65.9006C20.4317 57.5595 27.5975 53.0636 36.7769 54.1284C46.0156 55.1932 53.9513 57.7369 57.9784 56.9679C61.2948 56.3172 61.4133 54.4833 62.0055 54.0692C66.7432 54.9566 73.613 57.5595 76.7517 59.3933C77.5808 56.613 80.1866 57.5595 80.7788 59.8666C83.3254 60.5765 85.5166 61.4638 86.5826 61.9962C87.234 62.292 87.7078 63.1794 87.1156 63.1202C81.7264 62.5878 83.503 64.8949 83.9768 65.6639C84.4506 65.6048 86.4641 64.3033 86.9379 64.3033C89.5437 64.2442 91.9125 64.8949 92.6232 65.2498C92.5048 66.1964 91.3203 67.6161 90.6689 67.9711Z" fill="white"/>
</svg>
