<svg width="251" height="64" viewBox="0 0 251 64" fill="none" xmlns="http://www.w3.org/2000/svg">
<g clip-path="url(#clip0)">
<path d="M70.8499 38.0121C69.4837 32.194 64.7994 23.0788 48.7947 23.0788C45.4767 23.0788 38.255 24.0485 35.1322 24.2424C35.3274 23.8546 36.8888 19.5879 37.084 19.0061C36.4984 18.6182 33.7659 17.8424 29.8624 17.6485C20.1034 17.4546 8.78304 22.1091 2.73249 26.3758C1.95178 28.5091 0.780704 31.4182 -0.19519 33.5515C5.465 30.4485 14.6384 25.9879 24.3973 25.0182C29.472 24.4364 33.1804 25.794 33.7659 26.3758C34.3515 26.9576 29.0816 28.3152 29.0816 30.4485C29.0816 32.9697 40.0117 30.4485 47.0381 30.4485C59.9199 30.4485 64.9945 35.103 66.9463 41.1152C69.4837 48.6788 64.9945 55.8546 59.5295 58.5697C66.556 56.8243 73.1921 47.5152 70.8499 38.0121Z" fill="white"/>
<path d="M30.4479 16.0969C34.3515 16.0969 37.084 16.8727 37.8647 17.2606C37.6695 17.8424 36.1081 22.1091 35.9129 22.6909C37.4743 22.4969 44.5008 21.5273 49.7706 21.5273C65.3849 21.5273 70.0692 30.8363 71.2402 35.8788C71.6306 37.4303 71.8258 39.9515 71.8258 41.503C72.6065 37.8182 72.4113 34.5212 71.8258 30.4485C70.8499 24.2424 66.7511 14.7394 52.1127 14.7394C46.2574 14.7394 42.3538 15.5151 38.6454 15.903C38.8406 15.5151 40.0116 11.8303 40.2068 11.2485C39.4261 10.4727 36.6936 9.69695 32.9852 9.69695C23.8118 9.50301 13.4673 12.606 6.44088 17.6485C5.66016 19.5879 4.68427 22.303 3.70837 24.6303C10.7348 19.9757 21.86 16.0969 30.4479 16.0969Z" fill="white"/>
<path d="M103.445 7.17573H91.3437V10.2788H100.712C100.712 13.7697 100.517 16.0969 99.5412 16.0969C98.7605 16.0969 91.3437 16.0969 91.3437 16.0969V19.3939H103.445V25.9878H82.3655V0.581787H103.445V7.17573Z" fill="white"/>
<path d="M126.866 30.0606V26.1818H113.594V30.0606H105.592V19.2C105.592 19.2 106.177 19.2 107.348 18.8121C109.495 18.0363 110.666 15.7091 111.447 12.606C112.423 8.33936 112.813 3.87876 112.813 0.581787H131.746V19.2H134.673V30.0606H126.866ZM119.645 7.36967C119.45 12.4121 118.278 16.6788 116.717 19.2H122.963V7.36967H119.645Z" fill="white"/>
<path d="M156.338 26.1818V15.5151V13.1878C156.338 13.1878 150.678 20.7515 149.507 22.6909C148.531 24.2424 147.165 26.3757 144.823 26.3757C141.7 26.3757 138.382 26.3757 138.382 26.3757V0.969666H146.774V12.2182L146.579 16.2909C146.579 16.2909 154.191 5.43027 155.753 2.90906C156.729 1.1636 158.485 1.1636 159.461 1.1636C160.047 1.1636 164.536 1.1636 164.536 1.1636V26.5697H156.338" fill="white"/>
<path d="M178.003 9.50303H186.005V0.775757H194.984V26.1818H186.005V16.6788H178.198L178.003 26.1818H169.025V0.775757H178.003V9.50303Z" fill="white"/>
<path d="M226.993 26.1818H217.429L215.477 20.9455H207.865L206.304 26.1818H196.545L205.914 0.775757H217.624L226.993 26.1818ZM209.036 15.5152H214.306L211.574 6.4L209.036 15.5152Z" fill="white"/>
<path d="M242.412 26.1818V16.4848C241.241 16.4848 239.875 16.6788 239.484 17.8424C239.094 18.6181 237.533 22.6909 236.947 24.2424C236.166 25.9878 235.776 26.3757 234.8 26.3757C233.044 26.3757 226.407 26.3757 226.407 26.3757L228.75 20.7515C230.311 17.4545 231.287 16.4848 232.263 15.5151C233.239 14.5454 234.995 13.9636 234.995 13.9636C234.215 13.9636 232.263 13.5757 230.701 12.606C228.75 11.2485 228.164 9.69694 228.164 7.75754C228.164 6.39997 228.359 4.84845 230.311 3.103C231.677 1.93936 233.629 0.969666 237.142 0.969666H251V26.3757H242.412V26.1818ZM240.07 6.01209C239.289 6.01209 238.313 6.01209 237.533 6.59391C236.947 6.98179 236.557 7.5636 236.557 8.5333C236.557 9.503 236.947 10.0848 237.337 10.4727C238.118 11.0545 239.289 11.2485 240.07 11.2485H242.412V6.20603H240.07V6.01209Z" fill="white"/>
<path d="M213.135 63.6121V51.7818V49.0666C213.135 49.0666 207.085 57.7939 205.718 59.7333C203.767 62.8363 202.791 63.6121 200.253 63.6121C196.74 63.6121 193.617 63.6121 193.617 63.6121V36.0727H202.596V47.5151L202.4 51.7818C202.4 51.7818 210.598 40.7272 212.354 38.0121C213.526 36.2666 215.282 36.0727 216.453 36.0727C217.039 36.0727 222.113 36.0727 222.113 36.0727V63.6121H213.135Z" fill="white"/>
<path d="M241.631 63.6121V53.1394C240.265 53.1394 238.899 53.3333 238.313 54.6909C237.923 55.4667 236.166 59.9273 235.581 61.4788C234.8 63.4182 234.41 63.6121 233.239 63.6121C231.287 63.6121 224.26 63.6121 224.26 63.6121L226.798 57.6C228.554 53.9152 229.53 52.9455 230.506 51.9758C231.482 51.0061 233.434 50.2303 233.434 50.2303C232.653 50.2303 230.506 49.8424 228.749 48.6788C226.603 47.3212 226.017 45.3818 226.017 43.4424C226.017 42.0848 226.407 40.1454 228.359 38.4C229.725 37.2364 232.068 36.2667 235.776 36.2667H250.805V63.8061H241.631V63.6121ZM239.094 41.8909C238.313 41.8909 237.142 42.0848 236.361 42.4727C235.776 42.8606 235.386 43.6364 235.386 44.6061C235.386 45.5758 235.776 46.1576 236.361 46.5455C237.142 47.1273 238.508 47.3212 239.289 47.3212H241.826V41.8909H239.094Z" fill="white"/>
<path d="M93.6859 36.0727C96.4184 36.0727 101.103 36.0727 103.835 38.4C105.397 39.7576 106.958 42.0848 106.958 45.9636C106.958 51.7818 102.859 55.6606 97.1991 55.6606H92.1244V63.4182H82.3655V35.8788H93.6859V36.0727ZM91.9292 49.2606H94.4666C97.1991 49.2606 97.7846 46.9333 97.7846 45.7697C97.7846 44.6061 97.1991 42.4727 94.4666 42.4727H91.9292V49.2606Z" fill="white"/>
<path d="M134.088 39.9515C136.43 42.4727 137.601 46.1576 137.796 49.6485C137.991 56.6303 133.893 64 122.963 64C120.425 64 116.522 63.6121 113.204 60.5091C110.276 57.7939 108.715 53.9151 108.715 49.8424C108.519 41.3091 114.375 35.4909 123.353 35.4909C127.452 35.4909 131.355 36.8485 134.088 39.9515ZM123.158 42.8606C119.059 42.8606 118.669 47.3212 118.669 49.8424C118.669 52.3636 119.254 56.6303 123.353 56.6303C127.452 56.6303 127.842 52.3636 127.842 50.0364C127.647 45.1879 125.5 42.8606 123.158 42.8606Z" fill="white"/>
<path d="M163.56 44.0243C162.389 43.8303 160.047 43.4425 157.509 43.4425C152.825 43.4425 150.288 46.1576 150.288 49.8425C150.288 53.3334 152.044 56.0485 157.509 56.0485C160.242 56.0485 162.584 55.8546 163.56 55.6606L164.536 63.2243C159.851 64 155.948 64 155.362 64C146.189 64 139.748 58.5697 139.748 49.6485C139.748 40.9212 145.408 35.6849 155.558 35.6849C159.266 35.6849 163.17 36.2667 164.926 36.8485L163.56 44.0243Z" fill="white"/>
<path d="M189.324 44.0243C188.152 43.8303 185.81 43.4425 183.273 43.4425C178.589 43.4425 176.051 46.1576 176.051 49.8425C176.051 53.3334 177.808 56.0485 183.273 56.0485C186.006 56.0485 188.348 55.8546 189.324 55.6606L190.299 63.2243C185.615 64 181.712 64 181.126 64C171.953 64 165.512 58.5697 165.512 49.6485C165.512 40.9212 171.172 35.6849 181.321 35.6849C185.03 35.6849 188.933 36.2667 190.69 36.8485L189.324 44.0243Z" fill="white"/>
<path d="M71.8259 18.8121C70.2644 13.5757 65.9705 6.20601 54.2598 6.20601C49.7706 6.20601 43.5249 6.59389 41.7683 6.98177C41.9635 6.59389 43.3297 2.71511 43.5249 2.32723C42.7442 1.16359 40.2069 -4.62048e-05 36.4985 -4.62048e-05C27.3251 -0.193986 16.1999 4.07268 9.36862 9.1151C8.58791 11.2484 7.41684 14.1575 6.8313 16.2909C13.4674 11.4424 24.2022 7.95147 33.3756 8.33935C37.2792 8.33935 40.0117 9.1151 40.7924 9.89086C40.5972 10.4727 39.231 14.1575 39.0358 14.5454C42.9394 13.7696 48.9899 13.1878 52.308 13.1878C66.556 13.1878 71.0451 22.6909 72.021 27.7333C72.2162 29.2848 72.6066 31.0303 72.6066 32.9696C73.1921 30.0606 73.3873 24.0484 71.8259 18.8121Z" fill="white"/>
<path d="M64.6042 43.6364C63.6283 43.2485 61.8717 42.4728 60.7006 42.2788C61.0909 40.9212 59.3343 40.1455 56.0163 38.9818C55.8211 37.6243 53.6741 36.2667 51.9175 37.6243C49.5754 36.2667 43.1345 34.3273 40.0116 33.9394C39.8165 34.5212 39.2309 35.4909 38.255 35.6849C33.3756 36.4606 28.3009 33.5515 20.6889 33.9394C14.8336 34.1334 8.58784 40.1455 9.56374 47.5152C10.3445 47.9031 11.3203 48.4849 10.93 49.4546C10.5396 50.4243 9.95409 51.394 8.9782 53.5273C8.19748 55.6606 7.02641 60.5091 9.36856 63.8061H16.0046C16.1998 63.4182 16.0046 61.4788 15.2239 61.2849C14.6384 61.0909 13.8577 60.3152 14.0528 59.3455C14.248 58.3758 15.2239 57.6 17.1757 56.8243C16.7854 55.2727 15.8095 53.7212 15.6143 53.3334C16.395 53.1394 20.6889 61.0909 21.0793 61.8667C21.6648 62.6424 22.4455 63.4182 23.4214 64H30.643C30.643 63.2243 30.643 61.4788 29.8623 61.2849C28.8864 61.0909 27.7154 61.0909 27.325 59.9273C27.1298 58.7637 27.9105 57.4061 28.1057 55.6606C29.6672 55.0788 32.0093 55.2728 32.9852 55.0788C32.2045 57.4061 32.3997 60.897 32.5948 62.0606C32.79 62.4485 33.7659 63.6121 35.1322 64H42.3538C42.3538 63.4182 42.1586 61.4788 41.1827 61.4788C39.4261 61.4788 38.255 60.5091 38.4502 59.7334C38.4502 58.9576 39.6213 57.794 41.1827 56.4364C41.7682 55.8546 43.72 53.5273 44.5007 53.9152C43.5248 54.497 43.1345 55.8546 42.549 56.8243C43.3297 59.1515 46.8429 62.8364 48.9899 64.194H56.6018C56.4067 63.4182 55.8211 61.6728 54.65 61.4788C52.8934 61.0909 51.9175 60.897 51.332 59.9273C50.7465 58.9576 50.3561 56.0485 49.5754 54.497C48.5995 51.9758 48.4043 50.8121 49.3802 50.4243C49.5754 50.6182 50.3561 52.1697 50.7465 52.5576C52.6983 52.3637 56.797 51.0061 57.3825 49.8425C58.5536 50.0364 60.115 50.0364 60.7006 49.6485C60.8958 49.6485 61.8717 48.2909 61.6765 48.097C61.6765 48.097 61.2861 47.9031 60.8958 47.9031C61.4813 47.7091 62.262 47.5152 62.4572 47.3212C63.8234 45.9637 64.9945 43.8303 64.6042 43.6364ZM61.6765 45.9637C60.7006 46.5455 59.1392 45.9637 57.9681 46.1576C56.9922 46.3515 56.797 46.9334 56.9922 47.3212C55.2356 48.097 52.5031 47.9031 50.9416 49.0667C50.3561 48.2909 49.5754 47.7091 48.014 47.3212C48.2091 46.7394 49.185 45.5758 50.3561 45.3818C46.2574 44.4121 40.7923 48.2909 38.0598 52.7515C36.3032 55.6606 35.7177 57.9879 35.5225 59.1515C34.7418 58.9576 34.3514 54.8849 35.5225 51.394C36.4984 48.4849 37.0839 46.7394 38.6454 44.4121C37.8647 44.2182 34.937 46.7394 34.3514 49.2606C32.5948 49.2606 30.643 48.4849 29.472 47.3212C28.4961 46.3515 27.325 45.5758 26.7395 45.7697C28.4961 49.2606 26.7395 55.0788 25.5684 57.794C24.3973 57.2121 25.7636 54.497 19.713 46.9334C17.7612 44.4121 14.8336 44.6061 13.4673 44.8C14.0528 39.1758 18.9323 36.0728 25.178 36.8485C31.4238 37.6243 36.8888 39.1758 39.6213 38.7879C41.7682 38.4 41.9634 37.0425 42.3538 36.8485C45.4766 37.4303 50.1609 39.1758 52.3079 40.5334C52.8934 38.594 54.65 39.3697 55.0404 40.9212C56.797 41.5031 58.3584 42.0849 58.944 42.2788C59.3343 42.4728 59.7247 43.0546 59.3343 43.0546C55.6259 42.6667 56.797 44.2182 57.1874 44.8C57.5777 44.8 58.944 43.8303 59.1392 43.8303C60.8958 43.8303 62.4572 44.2182 63.0427 44.4121C62.8475 44.8 62.0668 45.7697 61.6765 45.9637Z" fill="white"/>
</g>
<defs>
<clipPath id="clip0">
<rect width="251" height="64" fill="white"/>
</clipPath>
</defs>
</svg>
