<svg width="129" height="33" viewBox="0 0 129 33" fill="none" xmlns="http://www.w3.org/2000/svg">
<g clip-path="url(#clip0)">
<path d="M36.3 19.5999C35.6 16.5999 33.2 11.8999 25 11.8999C23.3 11.8999 19.6 12.3999 18 12.4999C18.1 12.2999 18.9 10.0999 19 9.79995C18.7 9.59995 17.3 9.19995 15.3 9.09995C10.3 8.99995 4.50002 11.3999 1.40002 13.5999C1.00002 14.6999 0.400024 16.1999 -0.0999756 17.2999C2.80002 15.6999 7.50002 13.3999 12.5 12.8999C15.1 12.5999 17 13.2999 17.3 13.5999C17.6 13.8999 14.9 14.5999 14.9 15.6999C14.9 16.9999 20.5 15.6999 24.1 15.6999C30.7 15.6999 33.3 18.0999 34.3 21.1999C35.6 25.0999 33.3 28.7999 30.5 30.1999C34.1 29.2999 37.5 24.4999 36.3 19.5999Z" fill="white"/>
<path d="M15.6 8.30004C17.6 8.30004 19 8.70003 19.4 8.90003C19.3 9.20004 18.5 11.4 18.4 11.7C19.2 11.6 22.8 11.1 25.5 11.1C33.5 11.1 35.9 15.9 36.5 18.5C36.7 19.3 36.8 20.6 36.8 21.4C37.2 19.5 37.1 17.8 36.8 15.7C36.3 12.5 34.2 7.60004 26.7 7.60004C23.7 7.60004 21.7 8.00004 19.8 8.20004C19.9 8.00004 20.5 6.10004 20.6 5.80004C20.2 5.40004 18.8 5.00004 16.9 5.00004C12.2 4.90004 6.90002 6.50004 3.30002 9.10004C2.90002 10.1 2.40002 11.5 1.90002 12.7C5.50002 10.3 11.2 8.30004 15.6 8.30004Z" fill="white"/>
<path d="M53 3.70005H46.7999V5.30005H51.5999C51.5999 7.10005 51.5 8.30005 51 8.30005C50.6 8.30005 46.7999 8.30005 46.7999 8.30005V10H53V13.4H42.2V0.300049H53V3.70005Z" fill="white"/>
<path d="M65 15.5V13.5H58.2V15.5H54.1V9.90005C54.1 9.90005 54.4 9.90005 55 9.70005C56.1 9.30005 56.7 8.10005 57.1 6.50005C57.6 4.30005 57.8 2.00005 57.8 0.300049H67.5V9.90005H69V15.5H65ZM61.3 3.80005C61.2 6.40005 60.6 8.60005 59.8 9.90005H63V3.80005H61.3Z" fill="white"/>
<path d="M80.1 13.5V8V6.8C80.1 6.8 77.2 10.7 76.6 11.7C76.1 12.5 75.4 13.6 74.2 13.6C72.6 13.6 70.9 13.6 70.9 13.6V0.5H75.2V6.3L75.1 8.4C75.1 8.4 79 2.8 79.8 1.5C80.3 0.6 81.2 0.6 81.7 0.6C82 0.6 84.3 0.6 84.3 0.6V13.7H80.1" fill="white"/>
<path d="M91.2 4.8999H95.3V0.399902H99.9V13.4999H95.3V8.5999H91.3L91.2 13.4999H86.6V0.399902H91.2V4.8999Z" fill="white"/>
<path d="M116.3 13.4999H111.4L110.4 10.7999H106.5L105.7 13.4999H100.7L105.5 0.399902H111.5L116.3 13.4999ZM107.1 7.9999H109.8L108.4 3.2999L107.1 7.9999Z" fill="white"/>
<path d="M124.2 13.5V8.5C123.6 8.5 122.9 8.6 122.7 9.2C122.5 9.6 121.7 11.7 121.4 12.5C121 13.4 120.8 13.6 120.3 13.6C119.4 13.6 116 13.6 116 13.6L117.2 10.7C118 9 118.5 8.5 119 8C119.5 7.5 120.4 7.2 120.4 7.2C120 7.2 119 7 118.2 6.5C117.2 5.8 116.9 5 116.9 4C116.9 3.3 117 2.5 118 1.6C118.7 1 119.7 0.5 121.5 0.5H128.6V13.6H124.2V13.5ZM123 3.1C122.6 3.1 122.1 3.1 121.7 3.4C121.4 3.6 121.2 3.9 121.2 4.4C121.2 4.9 121.4 5.2 121.6 5.4C122 5.7 122.6 5.8 123 5.8H124.2V3.2H123V3.1Z" fill="white"/>
<path d="M109.2 32.8001V26.7001V25.3001C109.2 25.3001 106.1 29.8001 105.4 30.8001C104.4 32.4001 103.9 32.8001 102.6 32.8001C100.8 32.8001 99.2 32.8001 99.2 32.8001V18.6001H103.8V24.5001L103.7 26.7001C103.7 26.7001 107.9 21.0001 108.8 19.6001C109.4 18.7001 110.3 18.6001 110.9 18.6001C111.2 18.6001 113.8 18.6001 113.8 18.6001V32.8001H109.2Z" fill="white"/>
<path d="M123.8 32.7999V27.4C123.1 27.4 122.4 27.5 122.1 28.2C121.9 28.6 121 30.9 120.7 31.7C120.3 32.7 120.1 32.7999 119.5 32.7999C118.5 32.7999 114.9 32.7999 114.9 32.7999L116.2 29.7C117.1 27.8 117.6 27.2999 118.1 26.7999C118.6 26.2999 119.6 25.9 119.6 25.9C119.2 25.9 118.1 25.7 117.2 25.1C116.1 24.4 115.8 23.4 115.8 22.4C115.8 21.6999 116 20.6999 117 19.7999C117.7 19.1999 118.9 18.7 120.8 18.7H128.5V32.9H123.8V32.7999ZM122.5 21.6C122.1 21.6 121.5 21.6999 121.1 21.9C120.8 22.1 120.6 22.5 120.6 23C120.6 23.5 120.8 23.8 121.1 24C121.5 24.3 122.2 24.4 122.6 24.4H123.9V21.6H122.5Z" fill="white"/>
<path d="M48 18.6C49.4 18.6 51.8 18.6 53.2 19.8C54 20.5 54.7999 21.7 54.7999 23.7C54.7999 26.7 52.6999 28.7 49.7999 28.7H47.2V32.7H42.2V18.5H48V18.6ZM47.0999 25.4H48.4C49.8 25.4 50.0999 24.2 50.0999 23.6C50.0999 23 49.8 21.9 48.4 21.9H47.0999V25.4Z" fill="white"/>
<path d="M68.7001 20.6C69.9001 21.9 70.5001 23.8 70.6001 25.6C70.7001 29.2001 68.6001 33 63.0001 33C61.7001 33 59.7001 32.8001 58.0001 31.2001C56.5001 29.8001 55.7001 27.8001 55.7001 25.7001C55.6001 21.3001 58.6001 18.3 63.2001 18.3C65.3001 18.3 67.3001 19 68.7001 20.6ZM63.1001 22.1C61.0001 22.1 60.8001 24.4001 60.8001 25.7001C60.8001 27.0001 61.1001 29.2001 63.2001 29.2001C65.3001 29.2001 65.5001 27 65.5001 25.8C65.4001 23.3 64.3001 22.1 63.1001 22.1Z" fill="white"/>
<path d="M83.8 22.6999C83.2 22.5999 82 22.3999 80.7 22.3999C78.3 22.3999 77 23.7999 77 25.6999C77 27.4999 77.9 28.8999 80.7 28.8999C82.1 28.8999 83.3 28.7999 83.8 28.6999L84.3 32.5999C81.9 32.9999 79.9 32.9999 79.6 32.9999C74.9 32.9999 71.6 30.1999 71.6 25.5999C71.6 21.0999 74.5 18.3999 79.7 18.3999C81.6 18.3999 83.6 18.6999 84.5 18.9999L83.8 22.6999Z" fill="white"/>
<path d="M97 22.6999C96.4 22.5999 95.2 22.3999 93.9 22.3999C91.5 22.3999 90.2 23.7999 90.2 25.6999C90.2 27.4999 91.1 28.8999 93.9 28.8999C95.3 28.8999 96.5 28.7999 97 28.6999L97.5 32.5999C95.1 32.9999 93.1 32.9999 92.8 32.9999C88.1 32.9999 84.8 30.1999 84.8 25.5999C84.8 21.0999 87.7 18.3999 92.9 18.3999C94.8 18.3999 96.8 18.6999 97.7 18.9999L97 22.6999Z" fill="white"/>
<path d="M36.8 9.70011C36 7.00011 33.8 3.20011 27.8 3.20011C25.5 3.20011 22.3 3.40011 21.4 3.60011C21.5 3.40011 22.2 1.40011 22.3 1.20011C21.9 0.600107 20.6 0.000106829 18.7 0.000106829C14 -0.0998932 8.3 2.10011 4.8 4.70011C4.4 5.80011 3.8 7.30011 3.5 8.40011C6.9 5.90011 12.4 4.10011 17.1 4.30011C19.1 4.30011 20.5 4.70011 20.9 5.10011C20.8 5.40011 20.1 7.30011 20 7.50011C22 7.10011 25.1 6.80011 26.8 6.80011C34.1 6.80011 36.4 11.7001 36.9 14.3001C37 15.1001 37.2 16.0001 37.2 17.0001C37.5 15.5001 37.6 12.4001 36.8 9.70011Z" fill="white"/>
<path d="M33.1 22.4999C32.6 22.2999 31.7 21.8999 31.1 21.7999C31.3 21.0999 30.4 20.6999 28.7 20.0999C28.6 19.3999 27.5 18.6999 26.6 19.3999C25.4 18.6999 22.1 17.6999 20.5 17.4999C20.4 17.7999 20.1 18.2999 19.6 18.3999C17.1 18.7999 14.5 17.2999 10.6 17.4999C7.6 17.5999 4.4 20.6999 4.9 24.4999C5.3 24.6999 5.8 24.9999 5.6 25.4999C5.4 25.9999 5.1 26.4999 4.6 27.5999C4.2 28.6999 3.6 31.1999 4.8 32.8999H8.2C8.3 32.6999 8.2 31.6999 7.8 31.5999C7.5 31.4999 7.1 31.0999 7.2 30.5999C7.3 30.0999 7.8 29.6999 8.8 29.2999C8.6 28.4999 8.1 27.6999 8 27.4999C8.4 27.3999 10.6 31.4999 10.8 31.8999C11.1 32.2999 11.5 32.6999 12 32.9999H15.7C15.7 32.5999 15.7 31.6999 15.3 31.5999C14.8 31.4999 14.2 31.4999 14 30.8999C13.9 30.2999 14.3 29.5999 14.4 28.6999C15.2 28.3999 16.4 28.4999 16.9 28.3999C16.5 29.5999 16.6 31.3999 16.7 31.9999C16.8 32.1999 17.3 32.7999 18 32.9999H21.7C21.7 32.6999 21.6 31.6999 21.1 31.6999C20.2 31.6999 19.6 31.1999 19.7 30.7999C19.7 30.3999 20.3 29.7999 21.1 29.0999C21.4 28.7999 22.4 27.5999 22.8 27.7999C22.3 28.0999 22.1 28.7999 21.8 29.2999C22.2 30.4999 24 32.3999 25.1 33.0999H29C28.9 32.6999 28.6 31.7999 28 31.6999C27.1 31.4999 26.6 31.3999 26.3 30.8999C26 30.3999 25.8 28.8999 25.4 28.0999C24.9 26.7999 24.8 26.1999 25.3 25.9999C25.4 26.0999 25.8 26.8999 26 27.0999C27 26.9999 29.1 26.2999 29.4 25.6999C30 25.7999 30.8 25.7999 31.1 25.5999C31.2 25.5999 31.7 24.8999 31.6 24.7999C31.6 24.7999 31.4 24.6999 31.2 24.6999C31.5 24.5999 31.9 24.4999 32 24.3999C32.7 23.6999 33.3 22.5999 33.1 22.4999ZM31.6 23.6999C31.1 23.9999 30.3 23.6999 29.7 23.7999C29.2 23.8999 29.1 24.1999 29.2 24.3999C28.3 24.7999 26.9 24.6999 26.1 25.2999C25.8 24.8999 25.4 24.5999 24.6 24.3999C24.7 24.0999 25.2 23.4999 25.8 23.3999C23.7 22.8999 20.9 24.8999 19.5 27.1999C18.6 28.6999 18.3 29.8999 18.2 30.4999C17.8 30.3999 17.6 28.2999 18.2 26.4999C18.7 24.9999 19 24.0999 19.8 22.8999C19.4 22.7999 17.9 24.0999 17.6 25.3999C16.7 25.3999 15.7 24.9999 15.1 24.3999C14.6 23.8999 14 23.4999 13.7 23.5999C14.6 25.3999 13.7 28.3999 13.1 29.7999C12.5 29.4999 13.2 28.0999 10.1 24.1999C9.1 22.8999 7.6 22.9999 6.9 23.0999C7.2 20.1999 9.7 18.5999 12.9 18.9999C16.1 19.3999 18.9 20.1999 20.3 19.9999C21.4 19.7999 21.5 19.0999 21.7 18.9999C23.3 19.2999 25.7 20.1999 26.8 20.8999C27.1 19.8999 28 20.2999 28.2 21.0999C29.1 21.3999 29.9 21.6999 30.2 21.7999C30.4 21.8999 30.6 22.1999 30.4 22.1999C28.5 21.9999 29.1 22.7999 29.3 23.0999C29.5 23.0999 30.2 22.5999 30.3 22.5999C31.2 22.5999 32 22.7999 32.3 22.8999C32.2 23.0999 31.8 23.5999 31.6 23.6999Z" fill="white"/>
</g>
<defs>
<clipPath id="clip0">
<rect width="128.6" height="33" fill="white"/>
</clipPath>
</defs>
</svg>
