<svg width="116" height="34" viewBox="0 0 116 34" fill="none" xmlns="http://www.w3.org/2000/svg">
<g clip-path="url(#clip0)">
<path d="M18.9905 19.8363C16.9324 21.4529 14.959 22.9844 12.5908 23.6084C17.0734 24.5585 21.0767 23.1404 25.3478 19.6803C29.2807 16.4896 30.8876 8.02365 26.1654 3.64177C24.9672 2.53566 23.6281 1.67063 22.2185 1.06085C21.5278 0.791417 20.3719 0.394353 18.8918 0.181641C17.313 0.989949 15.6497 2.2095 14.1555 3.59922C16.0303 3.15962 18.2434 3.18798 19.949 3.92538C24.6853 6.33613 25.7425 14.5043 18.9905 19.8363Z" fill="#E3E3E3"/>
<path d="M14.8601 30.0319C4.11887 24.4872 3.04756 15.2554 10.0111 6.6193C12.0691 4.06675 15.0857 1.40075 17.8344 0.0535678C17.5384 0.0393869 17.2142 0.0252061 16.8618 0.0110252C16.8759 0.0110252 16.89 0.0110252 16.89 0.0110252C16.8477 0.0110252 16.8195 0.0110252 16.7772 0.0110252C15.9737 -0.0173365 15.0998 -0.00315561 14.3668 0.138653C9.72913 1.04623 5.38752 3.54206 2.66696 7.82467C-2.40765 15.7943 -0.0254005 26.3449 7.98121 31.3932C10.1379 32.7546 12.492 33.5771 14.8742 33.8891C15.6777 33.9883 16.4812 34.0167 17.2706 33.9883C19.8502 33.8749 22.3875 33.0808 24.7133 31.9463C21.6545 31.9038 17.778 31.5351 14.8601 30.0319Z" fill="#E3E3E3"/>
<path d="M54.0194 21.7929C52.8917 22.8139 51.313 23.3244 49.3254 23.3244H41.784C40.6986 23.3244 39.6695 23.1259 38.711 22.743C37.3578 22.2041 36.6812 21.3817 36.6812 20.3039V13.6814C36.6812 12.6321 37.3719 11.8379 38.7533 11.3274C39.7118 10.9729 40.7408 10.8027 41.8262 10.8027H49.41C50.3403 10.8027 51.327 10.9729 52.3702 11.3274C53.7939 11.8379 54.5128 12.547 54.5128 13.4404V15.9362C54.5128 17.6379 52.8212 18.4746 49.4382 18.4746H41.784V20.9279H54.5128C54.4987 21.2115 54.3436 21.5093 54.0194 21.7929ZM49.3254 13.3978H41.784V16.0355H49.3254V13.3978Z" fill="#E3E3E3"/>
<path d="M68.059 16.943L73.5283 23.3244H67.8758L64.9579 19.68L63.2945 21.6511C62.3501 22.7714 61.3634 23.3244 60.3343 23.3244H55.894L61.5184 16.943L56.4156 10.8027H61.8144L64.9579 14.2061L67.8476 10.8027H73.5424L68.059 16.943Z" fill="#E3E3E3"/>
<path d="M82.7191 23.3245C82.2257 23.3245 81.676 23.282 81.0558 23.1827C79.3219 22.9275 78.4621 22.0908 78.4621 20.6869V13.3979H75.4314V10.8028H78.4621V5.71191C79.9704 5.71191 80.9712 5.78282 81.4927 5.91045C82.8742 6.26497 83.5649 7.01655 83.5649 8.1652V10.8454H87.3003C87.3003 11.1715 87.244 11.4693 87.1453 11.753C86.7506 12.8732 85.5524 13.4263 83.5508 13.4263V20.9138H87.2862C87.3144 22.5304 85.778 23.3245 82.7191 23.3245Z" fill="#E3E3E3"/>
<path d="M108.008 26.0613C108.008 27.1107 107.331 27.8906 105.978 28.3586C105.09 28.6706 104.075 28.8408 102.947 28.8408H95.9132V28.3586C95.8427 27.6921 96.2797 27.0965 97.2382 26.586C97.7739 26.3024 98.9579 26.1606 100.79 26.1606H102.905V23.3244H95.1379C94.4049 23.3244 93.7142 23.2961 93.0657 23.2252C91.1487 23.0266 90.176 21.9347 90.176 19.921V10.8027C91.5856 10.9304 92.6429 11.0154 93.3618 11.0438C94.7009 11.3983 95.3634 12.1925 95.3634 13.4404V20.9279H102.905V10.8027H108.008V26.0613Z" fill="#E3E3E3"/>
<path d="M113.97 23.0834C113.378 23.2394 112.349 23.3245 110.897 23.3245V5.72607H116V20.7436C116 21.9206 115.324 22.7006 113.97 23.0834Z" fill="#E3E3E3"/>
</g>
<defs>
<clipPath id="clip0">
<rect width="116" height="34" fill="white"/>
</clipPath>
</defs>
</svg>
